<svg width="1000" height="800" viewBox="0 0 1000 800" fill="none" xmlns="http://www.w3.org/2000/svg">
  <defs>
    <linearGradient id="bg2" x1="0" y1="800" x2="1000" y2="0" gradientUnits="userSpaceOnUse">
      <stop stop-color="#0B1220"/>
      <stop offset="0.5" stop-color="#111827"/>
      <stop offset="1" stop-color="#1D4ED8"/>
    </linearGradient>
    <radialGradient id="spot1" cx="0" cy="0" r="1" gradientUnits="userSpaceOnUse" gradientTransform="translate(260 240) rotate(20) scale(520 420)">
      <stop stop-color="#0EA5E9" stop-opacity="0.75"/>
      <stop offset="1" stop-color="#0EA5E9" stop-opacity="0"/>
    </radialGradient>
    <radialGradient id="spot2" cx="0" cy="0" r="1" gradientUnits="userSpaceOnUse" gradientTransform="translate(780 540) rotate(-12) scale(520 440)">
      <stop stop-color="#7C3AED" stop-opacity="0.7"/>
      <stop offset="1" stop-color="#7C3AED" stop-opacity="0"/>
    </radialGradient>
    <linearGradient id="lines" x1="0" y1="0" x2="1000" y2="800" gradientUnits="userSpaceOnUse">
      <stop stop-color="#FFFFFF" stop-opacity="0.14"/>
      <stop offset="1" stop-color="#FFFFFF" stop-opacity="0"/>
    </linearGradient>
  </defs>

  <rect width="1000" height="800" fill="url(#bg2)"/>
  <rect width="1000" height="800" fill="url(#spot1)"/>
  <rect width="1000" height="800" fill="url(#spot2)"/>

  <g opacity="0.9">
    <path d="M0 566C153 454 286 458 399 578c118 125 250 133 397 25 78-58 152-72 223-42v239H0V566z" fill="#FFFFFF" opacity="0.08"/>
  </g>

  <g opacity="0.55">
    <path d="M62 152h876" stroke="url(#lines)" stroke-width="2"/>
    <path d="M62 218h876" stroke="url(#lines)" stroke-width="2"/>
    <path d="M62 284h876" stroke="url(#lines)" stroke-width="2"/>
    <path d="M62 350h876" stroke="url(#lines)" stroke-width="2"/>
    <path d="M62 416h876" stroke="url(#lines)" stroke-width="2"/>
  </g>
</svg>
